<svg width="28" height="29" viewBox="0 0 28 29" fill="none" xmlns="http://www.w3.org/2000/svg">
<path d="M25.4398 11.7502H24.5V11.7017H14V16.3684H20.5935C19.6315 19.085 17.0468 21.0351 14 21.0351C10.1343 21.0351 7.00004 17.9008 7.00004 14.0351C7.00004 10.1693 10.1343 7.03508 14 7.03508C15.7845 7.03508 17.4079 7.70824 18.644 8.80783L21.9439 5.50791C19.8602 3.56599 17.073 2.36841 14 2.36841C7.55712 2.36841 2.33337 7.59216 2.33337 14.0351C2.33337 20.478 7.55712 25.7017 14 25.7017C20.443 25.7017 25.6667 20.478 25.6667 14.0351C25.6667 13.2528 25.5862 12.4892 25.4398 11.7502Z" fill="#FFC107"/>
<path d="M3.67847 8.60482L7.51155 11.4159C8.54872 8.84807 11.0606 7.03507 14 7.03507C15.7844 7.03507 17.4078 7.70824 18.6439 8.80782L21.9438 5.50791C19.8601 3.56599 17.073 2.36841 14 2.36841C9.5188 2.36841 5.63263 4.89832 3.67847 8.60482Z" fill="#FF3D00"/>
<path d="M14 25.7017C17.0135 25.7017 19.7517 24.5485 21.8219 22.6731L18.2111 19.6176C17.0004 20.5383 15.521 21.0363 14 21.0351C10.9655 21.0351 8.38894 19.1002 7.41827 16.3999L3.61377 19.3312C5.5446 23.1094 9.46577 25.7017 14 25.7017Z" fill="#4CAF50"/>
<path d="M25.4398 11.7501H24.5V11.7017H14V16.3683H20.5934C20.1333 17.6612 19.3045 18.791 18.2093 19.6181L18.2111 19.6169L21.8219 22.6724C21.5664 22.9046 25.6667 19.8683 25.6667 14.035C25.6667 13.2527 25.5862 12.4892 25.4398 11.7501Z" fill="#1976D2"/>
</svg>
