<svg width="32" height="33" viewBox="0 0 32 33" fill="none" xmlns="http://www.w3.org/2000/svg">
<path d="M29.9467 8.03514C28.92 8.5018 27.8133 8.80847 26.6667 8.95514C27.84 8.24847 28.7467 7.12847 29.1733 5.7818C28.0667 6.44847 26.84 6.91514 25.5467 7.1818C24.4933 6.03514 23.0133 5.36847 21.3333 5.36847C18.2 5.36847 15.64 7.92847 15.64 11.0885C15.64 11.5418 15.6933 11.9818 15.7867 12.3951C11.04 12.1551 6.81334 9.87514 4.00001 6.4218C3.50668 7.2618 3.22668 8.24847 3.22668 9.28847C3.22668 11.2751 4.22668 13.0351 5.77334 14.0351C4.82668 14.0351 3.94668 13.7685 3.17334 13.3685V13.4085C3.17334 16.1818 5.14668 18.5018 7.76001 19.0218C6.92098 19.2514 6.04014 19.2834 5.18668 19.1151C5.54882 20.2518 6.25806 21.2463 7.2147 21.959C8.17134 22.6717 9.32727 23.0667 10.52 23.0885C8.49818 24.6891 5.99201 25.5542 3.41334 25.5418C2.96001 25.5418 2.50668 25.5151 2.05334 25.4618C4.58668 27.0885 7.60001 28.0351 10.8267 28.0351C21.3333 28.0351 27.1067 19.3151 27.1067 11.7551C27.1067 11.5018 27.1067 11.2618 27.0933 11.0085C28.2133 10.2085 29.1733 9.19514 29.9467 8.03514Z" fill="#686677"/>
</svg>
