<svg width="32" height="33" viewBox="0 0 32 33" fill="none" xmlns="http://www.w3.org/2000/svg">
<path d="M17.3707 2.70184C18.8707 2.70584 19.632 2.71384 20.2893 2.73251L20.548 2.74184C20.8467 2.75251 21.1413 2.76584 21.4973 2.78184C22.916 2.84851 23.884 3.07251 24.7333 3.40184C25.6133 3.74051 26.3547 4.19918 27.096 4.93918C27.774 5.6057 28.2986 6.41196 28.6333 7.30184C28.9627 8.15118 29.1867 9.11918 29.2533 10.5392C29.2693 10.8938 29.2827 11.1885 29.2933 11.4885L29.3013 11.7472C29.3213 12.4032 29.3293 13.1645 29.332 14.6645L29.3333 15.6592V17.4058C29.3366 18.3784 29.3264 19.3509 29.3027 20.3232L29.2947 20.5818C29.284 20.8818 29.2707 21.1765 29.2547 21.5312C29.188 22.9512 28.9613 23.9178 28.6333 24.7685C28.2996 25.6589 27.7748 26.4653 27.096 27.1312C26.4293 27.8089 25.6231 28.3335 24.7333 28.6685C23.884 28.9978 22.916 29.2218 21.4973 29.2885C21.181 29.3034 20.8645 29.3167 20.548 29.3285L20.2893 29.3365C19.632 29.3552 18.8707 29.3645 17.3707 29.3672L16.376 29.3685H14.6307C13.6577 29.3719 12.6847 29.3616 11.712 29.3378L11.4533 29.3298C11.1368 29.3179 10.8204 29.3041 10.504 29.2885C9.08533 29.2218 8.11733 28.9978 7.26666 28.6685C6.37689 28.3343 5.57095 27.8096 4.90533 27.1312C4.22672 26.4649 3.70163 25.6586 3.36666 24.7685C3.03733 23.9192 2.81333 22.9512 2.74666 21.5312C2.73181 21.2148 2.71847 20.8983 2.70666 20.5818L2.7 20.3232C2.67543 19.3509 2.66431 18.3784 2.66666 17.4058V14.6645C2.66294 13.692 2.67272 12.7194 2.696 11.7472L2.70533 11.4885C2.716 11.1885 2.72933 10.8938 2.74533 10.5392C2.812 9.11918 3.036 8.15251 3.36533 7.30184C3.70015 6.41105 4.22629 5.60454 4.90666 4.93918C5.57212 4.26114 6.37752 3.73649 7.26666 3.40184C8.11733 3.07251 9.084 2.84851 10.504 2.78184C10.8587 2.76584 11.1547 2.75251 11.4533 2.74184L11.712 2.73384C12.6843 2.71015 13.6568 2.69993 14.6293 2.70318L17.3707 2.70184ZM16 9.36851C14.2319 9.36851 12.5362 10.0709 11.286 11.3211C10.0357 12.5714 9.33333 14.2671 9.33333 16.0352C9.33333 17.8033 10.0357 19.499 11.286 20.7492C12.5362 21.9995 14.2319 22.7018 16 22.7018C17.7681 22.7018 19.4638 21.9995 20.714 20.7492C21.9643 19.499 22.6667 17.8033 22.6667 16.0352C22.6667 14.2671 21.9643 12.5714 20.714 11.3211C19.4638 10.0709 17.7681 9.36851 16 9.36851ZM16 12.0352C16.5253 12.0351 17.0454 12.1385 17.5308 12.3394C18.0161 12.5403 18.4571 12.8349 18.8286 13.2063C19.2001 13.5777 19.4948 14.0186 19.6959 14.5038C19.897 14.9891 20.0006 15.5092 20.0007 16.0345C20.0007 16.5598 19.8974 17.08 19.6964 17.5653C19.4955 18.0506 19.2009 18.4916 18.8296 18.8631C18.4582 19.2346 18.0173 19.5293 17.532 19.7304C17.0467 19.9315 16.5266 20.0351 16.0013 20.0352C14.9405 20.0352 13.923 19.6138 13.1729 18.8636C12.4228 18.1135 12.0013 17.096 12.0013 16.0352C12.0013 14.9743 12.4228 13.9569 13.1729 13.2067C13.923 12.4566 14.9405 12.0352 16.0013 12.0352M23.0013 7.36851C22.5593 7.36851 22.1354 7.5441 21.8228 7.85667C21.5103 8.16923 21.3347 8.59315 21.3347 9.03518C21.3347 9.4772 21.5103 9.90113 21.8228 10.2137C22.1354 10.5262 22.5593 10.7018 23.0013 10.7018C23.4434 10.7018 23.8673 10.5262 24.1798 10.2137C24.4924 9.90113 24.668 9.4772 24.668 9.03518C24.668 8.59315 24.4924 8.16923 24.1798 7.85667C23.8673 7.5441 23.4434 7.36851 23.0013 7.36851Z" fill="#686677"/>
</svg>
