<svg width="22" height="18" viewBox="0 0 22 18" fill="none" xmlns="http://www.w3.org/2000/svg">
<path d="M3.53033 0.504824C3.23744 0.211934 2.76256 0.211934 2.46967 0.504824C2.17678 0.797714 2.17678 1.27259 2.46967 1.56548L3.53033 0.504824ZM18.4697 17.5655C18.7626 17.8584 19.2374 17.8584 19.5303 17.5655C19.8232 17.2726 19.8232 16.7978 19.5303 16.5049L18.4697 17.5655ZM13.5002 11.8302C13.8088 11.5539 13.8351 11.0798 13.5589 10.7711C13.2826 10.4625 12.8085 10.4362 12.4998 10.7125L13.5002 11.8302ZM9.3227 7.53535C9.599 7.22665 9.5727 6.75254 9.2641 6.4763C8.95543 6.20005 8.48129 6.22632 8.20504 6.53496L9.3227 7.53535ZM18.1153 12.0773C17.8029 12.3492 17.7701 12.823 18.0421 13.1354C18.3141 13.4478 18.7878 13.4805 19.1002 13.2086L18.1153 12.0773ZM8.18831 1.73214C7.79307 1.85607 7.57313 2.27694 7.69705 2.67218C7.82098 3.06742 8.24185 3.28736 8.63709 3.16344L8.18831 1.73214ZM5.90354 4.47071C6.25269 4.24784 6.35505 3.78413 6.13218 3.43499C5.90931 3.08585 5.4456 2.98348 5.09646 3.20635L5.90354 4.47071ZM16.5515 15.0823C16.9064 14.8687 17.021 14.4079 16.8075 14.0529C16.5939 13.698 16.1331 13.5834 15.7782 13.797L16.5515 15.0823ZM2.46967 1.56548L18.4697 17.5655L19.5303 16.5049L3.53033 0.504824L2.46967 1.56548ZM7.25 9.03515C7.25 11.1063 8.92893 12.7852 11 12.7852V11.2852C9.7574 11.2852 8.75 10.2778 8.75 9.03515H7.25ZM11 12.7852C11.96 12.7852 12.8372 12.4235 13.5002 11.8302L12.4998 10.7125C12.1012 11.0692 11.5767 11.2852 11 11.2852V12.7852ZM8.20504 6.53496C7.61169 7.19795 7.25 8.07515 7.25 9.03515H8.75C8.75 8.45845 8.96602 7.93395 9.3227 7.53535L8.20504 6.53496ZM1.32608 11.6988C3.2977 13.7732 6.84898 16.7852 11 16.7852V15.2852C7.51999 15.2852 4.35328 12.7065 2.41334 10.6654L1.32608 11.6988ZM20.6739 6.37156C18.7023 4.29713 15.151 1.28515 11 1.28515V2.78515C14.48 2.78515 17.6467 5.36384 19.5867 7.40495L20.6739 6.37156ZM20.6739 11.6988C22.1087 10.1892 22.1087 7.88115 20.6739 6.37156L19.5867 7.40495C20.4711 8.33555 20.4711 9.73475 19.5867 10.6654L20.6739 11.6988ZM2.41334 10.6654C1.52889 9.73475 1.52889 8.33555 2.41334 7.40495L1.32608 6.37156C-0.108693 7.88115 -0.108694 10.1892 1.32608 11.6988L2.41334 10.6654ZM19.1002 13.2086C19.6921 12.6933 20.2202 12.1761 20.6739 11.6988L19.5867 10.6654C19.1602 11.1141 18.6662 11.5976 18.1153 12.0773L19.1002 13.2086ZM11 1.28515C10.0225 1.28515 9.0801 1.45251 8.18831 1.73214L8.63709 3.16344C9.4042 2.92291 10.1948 2.78515 11 2.78515V1.28515ZM5.09646 3.20635C3.57051 4.18042 2.28015 5.36774 1.32608 6.37156L2.41334 7.40495C3.31512 6.45613 4.51237 5.35875 5.90354 4.47071L5.09646 3.20635ZM11 16.7852C13.0476 16.7852 14.9403 16.0517 16.5515 15.0823L15.7782 13.797C14.3131 14.6785 12.6886 15.2852 11 15.2852V16.7852Z" fill="#49475A"/>
</svg>
